<svg width="1200" height="400" viewBox="0 0 1200 400" xmlns="http://www.w3.org/2000/svg">
  <defs>
    <linearGradient id="mountainGradient1" x1="0%" y1="0%" x2="0%" y2="100%">
      <stop offset="0%" style="stop-color:#ffffff;stop-opacity:0.4" />
      <stop offset="100%" style="stop-color:#ffffff;stop-opacity:0.15" />
    </linearGradient>
    <linearGradient id="mountainGradient2" x1="0%" y1="0%" x2="0%" y2="100%">
      <stop offset="0%" style="stop-color:#ffffff;stop-opacity:0.3" />
      <stop offset="100%" style="stop-color:#ffffff;stop-opacity:0.08" />
    </linearGradient>
    <linearGradient id="mountainGradient3" x1="0%" y1="0%" x2="0%" y2="100%">
      <stop offset="0%" style="stop-color:#ffffff;stop-opacity:0.25" />
      <stop offset="100%" style="stop-color:#ffffff;stop-opacity:0.05" />
    </linearGradient>
  </defs>
  
  <!-- Background mountains (farthest) -->
  <path d="M0,400 L0,300 L200,200 L400,250 L600,180 L800,220 L1000,150 L1200,200 L1200,400 Z" fill="url(#mountainGradient3)"/>
  
  <!-- Middle mountains -->
  <path d="M0,400 L0,250 L150,180 L300,220 L450,150 L600,200 L750,120 L900,180 L1050,140 L1200,180 L1200,400 Z" fill="url(#mountainGradient2)"/>
  
  <!-- Foreground mountains (closest) -->
  <path d="M0,400 L0,200 L100,150 L200,180 L300,120 L400,160 L500,100 L600,140 L700,80 L800,120 L900,90 L1000,130 L1100,100 L1200,140 L1200,400 Z" fill="url(#mountainGradient1)"/>
  
  <!-- Snow caps on peaks -->
  <path d="M500,100 L520,80 L540,100 Z" fill="#ffffff" opacity="0.8"/>
  <path d="M700,80 L720,60 L740,80 Z" fill="#ffffff" opacity="0.8"/>
  <path d="M900,90 L920,70 L940,90 Z" fill="#ffffff" opacity="0.8"/>
  
  <!-- Subtle cloud shapes -->
  <ellipse cx="200" cy="120" rx="40" ry="15" fill="#ffffff" opacity="0.1"/>
  <ellipse cx="800" cy="100" rx="50" ry="20" fill="#ffffff" opacity="0.1"/>
  <ellipse cx="1000" cy="130" rx="35" ry="12" fill="#ffffff" opacity="0.1"/>
</svg>
